<?xml version="1.0" encoding="utf-8"?>
<!-- Generator: Adobe Illustrator 27.2.0, SVG Export Plug-In . SVG Version: 6.00 Build 0)  -->
<svg version="1.1" id="Calque_1" xmlns="http://www.w3.org/2000/svg" xmlns:xlink="http://www.w3.org/1999/xlink" x="0px" y="0px"
	 viewBox="0 0 419.5 595.3" style="enable-background:new 0 0 419.5 595.3;" xml:space="preserve">
<style type="text/css">
	.st0{fill:#6699CC;}
	.st1{fill:#336699;}
	.st2{fill:#336666;}
	.st3{fill:#FFFFFF;}
	.st4{fill:#99CCFF;}
	.st5{fill:#99CCCC;}
	.st6{fill:#4D2458;}
</style>
<g>
	<g>
		<g>
			<g>
				<path class="st0" d="M149.2,130.2l-10.7-6.6c-2.9-1.8-2.7-6,0.3-7.6l11.6-6c3-1.6,6.6,0.8,6.4,4.2l-0.9,12.6
					C155.7,130.1,152,131.9,149.2,130.2z" />
			</g>
			<g>
				
					<ellipse transform="matrix(0.965 -0.2624 0.2624 0.965 -19.6612 38.8538)" class="st1" cx="135.7" cy="93" rx="46.3" ry="34.3"/>
			</g>
			<g>
				
					<ellipse transform="matrix(0.9988 -4.898547e-02 4.898547e-02 0.9988 -3.8141 8.3082)" class="st2" cx="167.6" cy="82" rx="31.7" ry="21.1"/>
			</g>
			<g>
				<path class="st2" d="M146,102.9l0.7-9.5c0.2-2.3,2.7-3.6,4.7-2.3l8.3,5.4c2,1.3,1.8,4.3-0.4,5.3l-9,4.2
					C148.2,106.8,145.9,105.2,146,102.9z"/>
			</g>
			<g>
				<ellipse transform="matrix(0.4145 -0.91 0.91 0.4145 -21.3236 143.4772)" class="st3" cx="100.8" cy="88.3" rx="6" ry="2.9"/>
			</g>
			<g>
				<ellipse transform="matrix(0.7271 -0.6865 0.6865 0.7271 0.7544 150.5104)" class="st4" cx="189.7" cy="74.3" rx="2" ry="3.8"/>
			</g>
			<g>
				<g>
					<path class="st3" d="M126.6,115.8c-1.1,0.2-1.7,0.2-2.8,0.2c-1.8,0-2.7-0.2-3.5-0.7c-0.8-0.5-1.2-1.5-1.2-2.5
						c0-1,0.4-1.9,1.2-2.4c0.7-0.5,1.7-0.7,3-0.7c1,0,2.1,0.1,3.5,0.3l0,2.4c-1-0.2-1.7-0.2-2.5-0.2c-1.2,0-1.7,0.3-1.7,1
						c0,0.7,0.5,0.9,1.8,0.9c0.8,0,1.5-0.1,2.3-0.2V115.8z"/>
					<path class="st3" d="M133.9,111.1c0.7,0.5,1,1.1,1,2.1c0,1-0.3,1.7-1,2.2c-0.6,0.4-1.5,0.7-2.9,0.7c-2.7,0-3.9-0.9-3.9-2.9
						c0-0.9,0.3-1.6,0.9-2c0.7-0.5,1.5-0.7,3-0.7C132.6,110.5,133.3,110.6,133.9,111.1z M130.1,113.2c0,0.8,0.3,1.2,1,1.2
						c0.7,0,1-0.4,1-1.1c0-0.7-0.3-1-1-1C130.4,112.3,130.1,112.6,130.1,113.2z"/>
					<path class="st3" d="M144.9,115.9v-2.5c0-0.6-0.1-0.8-0.7-0.8c-0.6,0-0.8,0.2-0.8,0.8v2.5h-3.1v-2.4c0-0.6-0.2-0.8-0.7-0.8
						c-0.5,0-0.7,0.2-0.7,0.7v2.5h-3.1v-5.2h2.9v0.9c0.6-0.8,1.2-1,2.3-1c0.8,0,1.4,0.1,1.7,0.4c0.2,0.2,0.3,0.3,0.5,0.7
						c0.2-0.4,0.3-0.5,0.6-0.7c0.4-0.3,1-0.4,1.7-0.4c1.7,0,2.5,0.7,2.5,2.1v3.3H144.9z"/>
					<path class="st3" d="M148.5,114.1v-1.7h3.3v1.7H148.5z"/>
					<path class="st3" d="M152.4,115.9v-6.2h7.4v2h-4.1v0.6h4.1v1.5h-4.1v0.5h4.1v1.6H152.4z"/>
					<path class="st3" d="M165.5,115.8c-0.8,0.2-1.5,0.2-2.4,0.2c-1.5,0-2-0.4-2-1.4v-1.9h-0.9v-1.1l2.3-2h1.7v1h2.1v2.1h-2.1v1.1
						c0,0.5,0.1,0.5,0.9,0.5c0.4,0,0.5,0,0.9-0.1L165.5,115.8z"/>
					<path class="st3" d="M166.5,114.1v-1.7h3.3v1.7H166.5z"/>
					<path class="st3" d="M177.7,115.8c-1.1,0.2-1.7,0.2-2.8,0.2c-1.8,0-2.7-0.2-3.5-0.7c-0.8-0.5-1.2-1.5-1.2-2.5
						c0-1,0.4-1.9,1.2-2.4c0.7-0.5,1.7-0.7,3-0.7c1,0,2.1,0.1,3.5,0.3l0,2.4c-1-0.2-1.7-0.2-2.5-0.2c-1.2,0-1.7,0.3-1.7,1
						c0,0.7,0.5,0.9,1.8,0.9c0.8,0,1.5-0.1,2.3-0.2V115.8z"/>
					<path class="st3" d="M183.1,115.9v-0.7c-0.6,0.6-1.2,0.8-2.2,0.8c-1.1,0-1.7-0.3-2.2-0.9c-0.3-0.5-0.4-1-0.4-1.8
						c0-1,0.2-1.7,0.7-2.1c0.4-0.4,1.1-0.6,2-0.6c1,0,1.7,0.3,2.2,0.9v-0.7h3.1v5.2H183.1z M181.4,113.3c0,0.7,0.3,1.1,0.9,1.1
						c0.6,0,0.9-0.4,0.9-1.1c0-0.6-0.3-1-0.9-1C181.7,112.4,181.4,112.7,181.4,113.3z"/>
					<path class="st3" d="M187.1,115.9v-6.4h3.1v6.4H187.1z"/>
					<path class="st3" d="M191.3,115.9v-6.4h3.1v6.4H191.3z"/>
				</g>
			</g>
			<g>
				<ellipse class="st3" cx="158.4" cy="81.5" rx="2.2" ry="2.4"/>
			</g>
			<g>
				<ellipse class="st3" cx="179.3" cy="82.7" rx="2.2" ry="2.4"/>
			</g>
			<g>
				<ellipse class="st3" cx="168.8" cy="82.1" rx="2.2" ry="2.4"/>
			</g>
			<g>
				<path class="st0" d="M92.3,109.1c5.3,11.6,17.1,15.7,20.9,17.1c17.1,5.9,33.7-0.6,33.7-1c0-0.3-11,3.4-24.9,0.2
					c-5.2-1.2-20.6-4.9-26.3-17.7c-4.1-9.4-0.8-18.7,0.4-22c4.3-11.8,13.5-17.5,13.2-17.9c-0.4-0.4-14,6.6-18.1,21.2
					C90.5,91.5,88.2,100,92.3,109.1z"/>
			</g>
			<g>
				<path class="st1" d="M154.2,130.4c-0.2,0.1-0.4,0.3-0.7,0.5c-0.9,0.5-1.9,0.4-2.5,0.2c-0.2-0.1-0.6-0.2-0.9-0.4
					c-0.2-0.1-0.4-0.2-0.5-0.3c-0.2-0.1-0.4-0.2-0.5-0.3c-0.1-0.1-0.2-0.1-0.4-0.2c-0.3-0.1-0.5-0.2-0.5-0.3
					c-0.4-0.2-1.4-0.7-1.9-1.1c-1.3-0.7-2.4-1.6-3.2-2.2c1.3-0.4,2.6-0.8,3.9-1.2C149.3,126.9,151.7,128.7,154.2,130.4z"/>
			</g>
			<g>
				<path class="st5" d="M194.7,92.3c3.2-3.5,4-6.5,4.2-7.4c0.6-2.5,0.4-4.5,0.4-5.3c-0.1-0.7-0.4-2.8-1.6-5.1
					c-2.2-4.5-6.1-7.1-6.2-7c-0.1,0.1,1.1,1,2.5,3c0.7,1,2.2,3.1,2.9,6.1c0.4,1.3,1.3,5.3-0.3,9.6c-0.5,1.3-1.5,3.2-4.1,5.7
					c-6.4,6.3-14.4,8.4-15.8,8.7c-10.8,2.8-21.2,0.7-21.2,1c0,0.1,0.5,0.1,2.3,0.7c0.6,0.2,1.1,0.3,1.1,0.4
					c0.6,0.2,9.8,2.8,21.9-1.6C183.8,99.8,190,97.5,194.7,92.3z"/>
			</g>
			<g>
				<path class="st5" d="M154.3,101.2c0.4,0.1,1.1,0.3,2,0.4c1.7,0.3,2.8,0.2,2.8,0.4c0,0.2-1.1,0.4-2.1,0.9
					c-0.5,0.3-0.8,0.4-0.8,0.4c-0.2,0.1-0.4,0.2-0.7,0.4c-0.1,0.1-0.2,0.1-0.4,0.2c-0.5,0.2-0.6,0.3-0.9,0.4c-0.8,0.4-2,0.9-2,0.9
					c-3,1.2-3.3,1.3-3.8,1.2c-0.6-0.1-1.3-0.5-1.3-0.7c0,0,0,0,0.3-0.2c0.2-0.1,0.3-0.2,0.4-0.3c0,0,0.1-0.1,0.3-0.2
					c0.2-0.1,0.4-0.3,0.4-0.3C148.7,104.5,150.1,103.7,154.3,101.2z"/>
			</g>
			<g>
				<path class="st6" d="M155,102.2"/>
			</g>
			<g>
				<path class="st6" d="M159.6,103.8"/>
			</g>
		</g>
		<g>
			<polygon class="st3" points="134.1,104.8 130.6,103.2 127.4,105.4 127.7,101.5 124.7,99 128.4,98 129.7,94.3 131.7,97.7 
				135.5,97.9 133.1,100.9 			"/>
		</g>
	</g>
</g>
</svg>
