<?xml version="1.0" encoding="UTF-8" standalone="no" ?>
<!DOCTYPE svg PUBLIC "-//W3C//DTD SVG 1.1//EN" "http://www.w3.org/Graphics/SVG/1.1/DTD/svg11.dtd">
<svg xmlns="http://www.w3.org/2000/svg" xmlns:xlink="http://www.w3.org/1999/xlink" version="1.1" width="1080" height="1080" viewBox="0 0 1080 1080" xml:space="preserve">
<desc>Created with Fabric.js 5.2.4</desc>
<defs>
</defs>
<g transform="matrix(1 0 0 1 540 540)" id="c3c0aa3c-fde4-4b59-b56f-caae3dfbfaab"  >
</g>
<g transform="matrix(1 0 0 1 540 540)" id="ab78e123-dd8d-418d-82d7-dc46733271db"  >
<rect style="stroke: none; stroke-width: 1; stroke-dasharray: none; stroke-linecap: butt; stroke-dashoffset: 0; stroke-linejoin: miter; stroke-miterlimit: 4; fill: rgb(255,255,255); fill-rule: nonzero; opacity: 1; visibility: hidden;" vector-effect="non-scaling-stroke"  x="-540" y="-540" rx="0" ry="0" width="1080" height="1080" />
</g>
<g transform="matrix(1 0 0 1 545.51 567.18)"  >
<path style="stroke: none; stroke-width: 1; stroke-dasharray: none; stroke-linecap: butt; stroke-dashoffset: 0; stroke-linejoin: miter; stroke-miterlimit: 4; fill: rgb(102,153,204); fill-rule: nonzero; opacity: 1;" vector-effect="non-scaling-stroke"  transform=" translate(-146.62, -120.17)" d="M 149.2 130.2 L 138.5 123.6 C 135.6 121.8 135.8 117.6 138.8 116 L 150.4 110 C 153.4 108.4 157 110.8 156.8 114.2 L 155.9 126.8 C 155.7 130.1 152 131.9 149.2 130.2 z" stroke-linecap="round" />
</g>
<g transform="matrix(0.96 -0.26 0.26 0.96 534.58 540)"  >
<ellipse style="stroke: none; stroke-width: 1; stroke-dasharray: none; stroke-linecap: butt; stroke-dashoffset: 0; stroke-linejoin: miter; stroke-miterlimit: 4; fill: rgb(51,102,153); fill-rule: nonzero; opacity: 1;" vector-effect="non-scaling-stroke"  cx="0" cy="0" rx="46.3" ry="34.3" />
</g>
<g transform="matrix(1 -0.05 0.05 1 566.49 529.01)"  >
<ellipse style="stroke: none; stroke-width: 1; stroke-dasharray: none; stroke-linecap: butt; stroke-dashoffset: 0; stroke-linejoin: miter; stroke-miterlimit: 4; fill: rgb(51,102,102); fill-rule: nonzero; opacity: 1;" vector-effect="non-scaling-stroke"  cx="0" cy="0" rx="31.7" ry="21.1" />
</g>
<g transform="matrix(1 0 0 1 552.43 545.4)"  >
<path style="stroke: none; stroke-width: 1; stroke-dasharray: none; stroke-linecap: butt; stroke-dashoffset: 0; stroke-linejoin: miter; stroke-miterlimit: 4; fill: rgb(51,102,102); fill-rule: nonzero; opacity: 1;" vector-effect="non-scaling-stroke"  transform=" translate(-153.54, -98.4)" d="M 146 102.9 L 146.7 93.4 C 146.89999999999998 91.10000000000001 149.39999999999998 89.80000000000001 151.39999999999998 91.10000000000001 L 159.7 96.50000000000001 C 161.7 97.80000000000001 161.5 100.80000000000001 159.29999999999998 101.80000000000001 L 150.29999999999998 106.00000000000001 C 148.2 106.8 145.9 105.2 146 102.9 z" stroke-linecap="round" />
</g>
<g transform="matrix(0.41 -0.91 0.91 0.41 499.7 535.35)"  >
<ellipse style="stroke: none; stroke-width: 1; stroke-dasharray: none; stroke-linecap: butt; stroke-dashoffset: 0; stroke-linejoin: miter; stroke-miterlimit: 4; fill: rgb(255,255,255); fill-rule: nonzero; opacity: 1;" vector-effect="non-scaling-stroke"  cx="0" cy="0" rx="6" ry="2.9" />
</g>
<g transform="matrix(0.73 -0.69 0.69 0.73 588.58 521.31)"  >
<ellipse style="stroke: none; stroke-width: 1; stroke-dasharray: none; stroke-linecap: butt; stroke-dashoffset: 0; stroke-linejoin: miter; stroke-miterlimit: 4; fill: rgb(153,204,255); fill-rule: nonzero; opacity: 1;" vector-effect="non-scaling-stroke"  cx="0" cy="0" rx="2" ry="3.8" />
</g>
<g transform="matrix(1 0 0 1 521.84 559.86)"  >
<path style="stroke: none; stroke-width: 1; stroke-dasharray: none; stroke-linecap: butt; stroke-dashoffset: 0; stroke-linejoin: miter; stroke-miterlimit: 4; fill: rgb(255,255,255); fill-rule: nonzero; opacity: 1;" vector-effect="non-scaling-stroke"  transform=" translate(-122.95, -112.85)" d="M 126.6 115.8 C 125.5 116 124.89999999999999 116 123.8 116 C 122 116 121.1 115.8 120.3 115.3 C 119.5 114.8 119.1 113.8 119.1 112.8 C 119.1 111.8 119.5 110.89999999999999 120.3 110.39999999999999 C 121 109.89999999999999 122 109.69999999999999 123.3 109.69999999999999 C 124.3 109.69999999999999 125.39999999999999 109.79999999999998 126.8 109.99999999999999 L 126.8 112.39999999999999 C 125.8 112.19999999999999 125.1 112.19999999999999 124.3 112.19999999999999 C 123.1 112.19999999999999 122.6 112.49999999999999 122.6 113.19999999999999 C 122.6 113.89999999999999 123.1 114.1 124.39999999999999 114.1 C 125.19999999999999 114.1 125.89999999999999 114 126.69999999999999 113.89999999999999 L 126.69999999999999 115.8 z" stroke-linecap="round" />
</g>
<g transform="matrix(1 0 0 1 529.89 560.31)"  >
<path style="stroke: none; stroke-width: 1; stroke-dasharray: none; stroke-linecap: butt; stroke-dashoffset: 0; stroke-linejoin: miter; stroke-miterlimit: 4; fill: rgb(255,255,255); fill-rule: nonzero; opacity: 1;" vector-effect="non-scaling-stroke"  transform=" translate(-131, -113.3)" d="M 133.9 111.1 C 134.6 111.6 134.9 112.19999999999999 134.9 113.19999999999999 C 134.9 114.19999999999999 134.6 114.89999999999999 133.9 115.39999999999999 C 133.3 115.8 132.4 116.1 131 116.1 C 128.3 116.1 127.1 115.19999999999999 127.1 113.19999999999999 C 127.1 112.29999999999998 127.39999999999999 111.6 128 111.19999999999999 C 128.7 110.69999999999999 129.5 110.49999999999999 131 110.49999999999999 C 132.6 110.5 133.3 110.6 133.9 111.1 z M 130.1 113.2 C 130.1 114 130.4 114.4 131.1 114.4 C 131.79999999999998 114.4 132.1 114 132.1 113.30000000000001 C 132.1 112.60000000000001 131.79999999999998 112.30000000000001 131.1 112.30000000000001 C 130.4 112.3 130.1 112.6 130.1 113.2 z" stroke-linecap="round" />
</g>
<g transform="matrix(1 0 0 1 540.79 560.31)"  >
<path style="stroke: none; stroke-width: 1; stroke-dasharray: none; stroke-linecap: butt; stroke-dashoffset: 0; stroke-linejoin: miter; stroke-miterlimit: 4; fill: rgb(255,255,255); fill-rule: nonzero; opacity: 1;" vector-effect="non-scaling-stroke"  transform=" translate(-141.9, -113.3)" d="M 144.9 115.9 L 144.9 113.4 C 144.9 112.80000000000001 144.8 112.60000000000001 144.20000000000002 112.60000000000001 C 143.60000000000002 112.60000000000001 143.4 112.80000000000001 143.4 113.4 L 143.4 115.9 L 140.3 115.9 L 140.3 113.5 C 140.3 112.9 140.10000000000002 112.7 139.60000000000002 112.7 C 139.10000000000002 112.7 138.90000000000003 112.9 138.90000000000003 113.4 L 138.90000000000003 115.9 L 135.80000000000004 115.9 L 135.80000000000004 110.7 L 138.70000000000005 110.7 L 138.70000000000005 111.60000000000001 C 139.30000000000004 110.80000000000001 139.90000000000003 110.60000000000001 141.00000000000006 110.60000000000001 C 141.80000000000007 110.60000000000001 142.40000000000006 110.7 142.70000000000005 111.00000000000001 C 142.90000000000003 111.20000000000002 143.00000000000006 111.30000000000001 143.20000000000005 111.70000000000002 C 143.40000000000003 111.30000000000001 143.50000000000006 111.20000000000002 143.80000000000004 111.00000000000001 C 144.20000000000005 110.70000000000002 144.80000000000004 110.60000000000001 145.50000000000003 110.60000000000001 C 147.20000000000002 110.60000000000001 148.00000000000003 111.30000000000001 148.00000000000003 112.7 L 148.00000000000003 116 L 144.9 116 z" stroke-linecap="round" />
</g>
<g transform="matrix(1 0 0 1 549.04 560.26)"  >
<path style="stroke: none; stroke-width: 1; stroke-dasharray: none; stroke-linecap: butt; stroke-dashoffset: 0; stroke-linejoin: miter; stroke-miterlimit: 4; fill: rgb(255,255,255); fill-rule: nonzero; opacity: 1;" vector-effect="non-scaling-stroke"  transform=" translate(-150.15, -113.25)" d="M 148.5 114.1 L 148.5 112.39999999999999 L 151.8 112.39999999999999 L 151.8 114.1 L 148.5 114.1 z" stroke-linecap="round" />
</g>
<g transform="matrix(1 0 0 1 554.99 559.81)"  >
<path style="stroke: none; stroke-width: 1; stroke-dasharray: none; stroke-linecap: butt; stroke-dashoffset: 0; stroke-linejoin: miter; stroke-miterlimit: 4; fill: rgb(255,255,255); fill-rule: nonzero; opacity: 1;" vector-effect="non-scaling-stroke"  transform=" translate(-156.1, -112.8)" d="M 152.4 115.9 L 152.4 109.7 L 159.8 109.7 L 159.8 111.7 L 155.70000000000002 111.7 L 155.70000000000002 112.3 L 159.8 112.3 L 159.8 113.8 L 155.70000000000002 113.8 L 155.70000000000002 114.3 L 159.8 114.3 L 159.8 115.89999999999999 L 152.4 115.89999999999999 z" stroke-linecap="round" />
</g>
<g transform="matrix(1 0 0 1 562.14 559.81)"  >
<path style="stroke: none; stroke-width: 1; stroke-dasharray: none; stroke-linecap: butt; stroke-dashoffset: 0; stroke-linejoin: miter; stroke-miterlimit: 4; fill: rgb(255,255,255); fill-rule: nonzero; opacity: 1;" vector-effect="non-scaling-stroke"  transform=" translate(-163.25, -112.8)" d="M 165.5 115.8 C 164.7 116 164 116 163.1 116 C 161.6 116 161.1 115.6 161.1 114.6 L 161.1 112.69999999999999 L 160.2 112.69999999999999 L 160.2 111.6 L 162.5 109.6 L 164.2 109.6 L 164.2 110.6 L 166.29999999999998 110.6 L 166.29999999999998 112.69999999999999 L 164.2 112.69999999999999 L 164.2 113.79999999999998 C 164.2 114.29999999999998 164.29999999999998 114.29999999999998 165.1 114.29999999999998 C 165.5 114.29999999999998 165.6 114.29999999999998 166 114.19999999999999 L 165.5 115.8 z" stroke-linecap="round" />
</g>
<g transform="matrix(1 0 0 1 567.04 560.26)"  >
<path style="stroke: none; stroke-width: 1; stroke-dasharray: none; stroke-linecap: butt; stroke-dashoffset: 0; stroke-linejoin: miter; stroke-miterlimit: 4; fill: rgb(255,255,255); fill-rule: nonzero; opacity: 1;" vector-effect="non-scaling-stroke"  transform=" translate(-168.15, -113.25)" d="M 166.5 114.1 L 166.5 112.39999999999999 L 169.8 112.39999999999999 L 169.8 114.1 L 166.5 114.1 z" stroke-linecap="round" />
</g>
<g transform="matrix(1 0 0 1 572.94 559.86)"  >
<path style="stroke: none; stroke-width: 1; stroke-dasharray: none; stroke-linecap: butt; stroke-dashoffset: 0; stroke-linejoin: miter; stroke-miterlimit: 4; fill: rgb(255,255,255); fill-rule: nonzero; opacity: 1;" vector-effect="non-scaling-stroke"  transform=" translate(-174.05, -112.85)" d="M 177.7 115.8 C 176.6 116 176 116 174.89999999999998 116 C 173.09999999999997 116 172.2 115.8 171.39999999999998 115.3 C 170.59999999999997 114.8 170.2 113.8 170.2 112.8 C 170.2 111.8 170.6 110.89999999999999 171.39999999999998 110.39999999999999 C 172.09999999999997 109.89999999999999 173.09999999999997 109.69999999999999 174.39999999999998 109.69999999999999 C 175.39999999999998 109.69999999999999 176.49999999999997 109.79999999999998 177.89999999999998 109.99999999999999 L 177.89999999999998 112.39999999999999 C 176.89999999999998 112.19999999999999 176.2 112.19999999999999 175.39999999999998 112.19999999999999 C 174.2 112.19999999999999 173.7 112.49999999999999 173.7 113.19999999999999 C 173.7 113.89999999999999 174.2 114.1 175.5 114.1 C 176.3 114.1 177 114 177.8 113.89999999999999 L 177.8 115.8 z" stroke-linecap="round" />
</g>
<g transform="matrix(1 0 0 1 581.19 560.31)"  >
<path style="stroke: none; stroke-width: 1; stroke-dasharray: none; stroke-linecap: butt; stroke-dashoffset: 0; stroke-linejoin: miter; stroke-miterlimit: 4; fill: rgb(255,255,255); fill-rule: nonzero; opacity: 1;" vector-effect="non-scaling-stroke"  transform=" translate(-182.3, -113.3)" d="M 183.1 115.9 L 183.1 115.2 C 182.5 115.8 181.9 116 180.9 116 C 179.8 116 179.20000000000002 115.7 178.70000000000002 115.1 C 178.4 114.6 178.3 114.1 178.3 113.3 C 178.3 112.3 178.5 111.6 179 111.2 C 179.4 110.8 180.1 110.60000000000001 181 110.60000000000001 C 182 110.60000000000001 182.7 110.9 183.2 111.50000000000001 L 183.2 110.80000000000001 L 186.29999999999998 110.80000000000001 L 186.29999999999998 116.00000000000001 L 183.1 116.00000000000001 z M 181.4 113.3 C 181.4 114 181.70000000000002 114.39999999999999 182.3 114.39999999999999 C 182.9 114.39999999999999 183.20000000000002 113.99999999999999 183.20000000000002 113.3 C 183.20000000000002 112.7 182.9 112.3 182.3 112.3 C 181.7 112.4 181.4 112.7 181.4 113.3 z" stroke-linecap="round" />
</g>
<g transform="matrix(1 0 0 1 587.54 559.71)"  >
<path style="stroke: none; stroke-width: 1; stroke-dasharray: none; stroke-linecap: butt; stroke-dashoffset: 0; stroke-linejoin: miter; stroke-miterlimit: 4; fill: rgb(255,255,255); fill-rule: nonzero; opacity: 1;" vector-effect="non-scaling-stroke"  transform=" translate(-188.65, -112.7)" d="M 187.1 115.9 L 187.1 109.5 L 190.2 109.5 L 190.2 115.9 L 187.1 115.9 z" stroke-linecap="round" />
</g>
<g transform="matrix(1 0 0 1 591.74 559.71)"  >
<path style="stroke: none; stroke-width: 1; stroke-dasharray: none; stroke-linecap: butt; stroke-dashoffset: 0; stroke-linejoin: miter; stroke-miterlimit: 4; fill: rgb(255,255,255); fill-rule: nonzero; opacity: 1;" vector-effect="non-scaling-stroke"  transform=" translate(-192.85, -112.7)" d="M 191.3 115.9 L 191.3 109.5 L 194.4 109.5 L 194.4 115.9 L 191.3 115.9 z" stroke-linecap="round" />
</g>
<g transform="matrix(1 0 0 1 557.29 528.51)"  >
<ellipse style="stroke: none; stroke-width: 1; stroke-dasharray: none; stroke-linecap: butt; stroke-dashoffset: 0; stroke-linejoin: miter; stroke-miterlimit: 4; fill: rgb(255,255,255); fill-rule: nonzero; opacity: 1;" vector-effect="non-scaling-stroke"  cx="0" cy="0" rx="2.2" ry="2.4" />
</g>
<g transform="matrix(1 0 0 1 578.19 529.71)"  >
<ellipse style="stroke: none; stroke-width: 1; stroke-dasharray: none; stroke-linecap: butt; stroke-dashoffset: 0; stroke-linejoin: miter; stroke-miterlimit: 4; fill: rgb(255,255,255); fill-rule: nonzero; opacity: 1;" vector-effect="non-scaling-stroke"  cx="0" cy="0" rx="2.2" ry="2.4" />
</g>
<g transform="matrix(1 0 0 1 567.69 529.11)"  >
<ellipse style="stroke: none; stroke-width: 1; stroke-dasharray: none; stroke-linecap: butt; stroke-dashoffset: 0; stroke-linejoin: miter; stroke-miterlimit: 4; fill: rgb(255,255,255); fill-rule: nonzero; opacity: 1;" vector-effect="non-scaling-stroke"  cx="0" cy="0" rx="2.2" ry="2.4" />
</g>
<g transform="matrix(1 0 0 1 517.3 545.23)"  >
<path style="stroke: none; stroke-width: 1; stroke-dasharray: none; stroke-linecap: butt; stroke-dashoffset: 0; stroke-linejoin: miter; stroke-miterlimit: 4; fill: rgb(102,153,204); fill-rule: nonzero; opacity: 1;" vector-effect="non-scaling-stroke"  transform=" translate(-118.41, -98.22)" d="M 92.3 109.1 C 97.6 120.69999999999999 109.4 124.8 113.19999999999999 126.19999999999999 C 130.29999999999998 132.1 146.89999999999998 125.6 146.89999999999998 125.19999999999999 C 146.89999999999998 124.89999999999999 135.89999999999998 128.6 121.99999999999997 125.39999999999999 C 116.79999999999997 124.19999999999999 101.39999999999998 120.49999999999999 95.69999999999997 107.69999999999999 C 91.59999999999998 98.29999999999998 94.89999999999998 88.99999999999999 96.09999999999998 85.69999999999999 C 100.39999999999998 73.89999999999999 109.59999999999998 68.19999999999999 109.29999999999998 67.79999999999998 C 108.89999999999998 67.39999999999998 95.29999999999998 74.39999999999998 91.19999999999999 88.99999999999999 C 90.5 91.5 88.2 100 92.3 109.1 z" stroke-linecap="round" />
</g>
<g transform="matrix(1 0 0 1 547.54 575.19)"  >
<path style="stroke: none; stroke-width: 1; stroke-dasharray: none; stroke-linecap: butt; stroke-dashoffset: 0; stroke-linejoin: miter; stroke-miterlimit: 4; fill: rgb(51,102,153); fill-rule: nonzero; opacity: 1;" vector-effect="non-scaling-stroke"  transform=" translate(-148.65, -128.18)" d="M 154.2 130.4 C 154 130.5 153.79999999999998 130.70000000000002 153.5 130.9 C 152.6 131.4 151.6 131.3 151 131.1 C 150.8 131 150.4 130.9 150.1 130.7 C 149.9 130.6 149.7 130.5 149.6 130.39999999999998 C 149.4 130.29999999999998 149.2 130.2 149.1 130.09999999999997 C 149 129.99999999999997 148.9 129.99999999999997 148.7 129.89999999999998 C 148.39999999999998 129.79999999999998 148.2 129.7 148.2 129.59999999999997 C 147.79999999999998 129.39999999999998 146.79999999999998 128.89999999999998 146.29999999999998 128.49999999999997 C 144.99999999999997 127.79999999999997 143.89999999999998 126.89999999999998 143.1 126.29999999999997 C 144.4 125.89999999999996 145.7 125.49999999999997 147 125.09999999999997 C 149.3 126.9 151.7 128.7 154.2 130.4 z" stroke-linecap="round" />
</g>
<g transform="matrix(1 0 0 1 576.31 532.58)"  >
<path style="stroke: none; stroke-width: 1; stroke-dasharray: none; stroke-linecap: butt; stroke-dashoffset: 0; stroke-linejoin: miter; stroke-miterlimit: 4; fill: rgb(153,204,204); fill-rule: nonzero; opacity: 1;" vector-effect="non-scaling-stroke"  transform=" translate(-177.42, -85.57)" d="M 194.7 92.3 C 197.89999999999998 88.8 198.7 85.8 198.89999999999998 84.89999999999999 C 199.49999999999997 82.39999999999999 199.29999999999998 80.39999999999999 199.29999999999998 79.6 C 199.2 78.89999999999999 198.89999999999998 76.8 197.7 74.5 C 195.5 70 191.6 67.4 191.5 67.5 C 191.4 67.6 192.6 68.5 194 70.5 C 194.7 71.5 196.2 73.6 196.9 76.6 C 197.3 77.89999999999999 198.20000000000002 81.89999999999999 196.6 86.19999999999999 C 196.1 87.49999999999999 195.1 89.39999999999999 192.5 91.89999999999999 C 186.1 98.19999999999999 178.1 100.3 176.7 100.6 C 165.89999999999998 103.39999999999999 155.5 101.3 155.5 101.6 C 155.5 101.69999999999999 156 101.69999999999999 157.8 102.3 C 158.4 102.5 158.9 102.6 158.9 102.7 C 159.5 102.9 168.70000000000002 105.5 180.8 101.10000000000001 C 183.8 99.8 190 97.5 194.7 92.3 z" stroke-linecap="round" />
</g>
<g transform="matrix(1 0 0 1 551.99 550.82)"  >
<path style="stroke: none; stroke-width: 1; stroke-dasharray: none; stroke-linecap: butt; stroke-dashoffset: 0; stroke-linejoin: miter; stroke-miterlimit: 4; fill: rgb(153,204,204); fill-rule: nonzero; opacity: 1;" vector-effect="non-scaling-stroke"  transform=" translate(-153.1, -103.81)" d="M 154.3 101.2 C 154.70000000000002 101.3 155.4 101.5 156.3 101.60000000000001 C 158 101.9 159.10000000000002 101.80000000000001 159.10000000000002 102.00000000000001 C 159.10000000000002 102.20000000000002 158.00000000000003 102.40000000000002 157.00000000000003 102.90000000000002 C 156.50000000000003 103.20000000000002 156.20000000000002 103.30000000000003 156.20000000000002 103.30000000000003 C 156.00000000000003 103.40000000000002 155.8 103.50000000000003 155.50000000000003 103.70000000000003 C 155.40000000000003 103.80000000000003 155.30000000000004 103.80000000000003 155.10000000000002 103.90000000000003 C 154.60000000000002 104.10000000000004 154.50000000000003 104.20000000000003 154.20000000000002 104.30000000000004 C 153.4 104.70000000000005 152.20000000000002 105.20000000000005 152.20000000000002 105.20000000000005 C 149.20000000000002 106.40000000000005 148.9 106.50000000000004 148.4 106.40000000000005 C 147.8 106.30000000000005 147.1 105.90000000000005 147.1 105.70000000000005 C 147.1 105.70000000000005 147.1 105.70000000000005 147.4 105.50000000000004 C 147.6 105.40000000000005 147.70000000000002 105.30000000000004 147.8 105.20000000000005 C 147.8 105.20000000000005 147.9 105.10000000000005 148.10000000000002 105.00000000000004 C 148.3 104.90000000000005 148.50000000000003 104.70000000000005 148.50000000000003 104.70000000000005 C 148.7 104.5 150.1 103.7 154.3 101.2 z" stroke-linecap="round" />
</g>
<g transform="matrix(1 0 0 1 553.89 549.21)"  >
<path style="stroke: none; stroke-width: 1; stroke-dasharray: none; stroke-linecap: butt; stroke-dashoffset: 0; stroke-linejoin: miter; stroke-miterlimit: 4; fill: rgb(77,36,88); fill-rule: nonzero; opacity: 1;" vector-effect="non-scaling-stroke"  transform=" translate(-155, -102.2)" d="M 155 102.2" stroke-linecap="round" />
</g>
<g transform="matrix(1 0 0 1 558.49 550.81)"  >
<path style="stroke: none; stroke-width: 1; stroke-dasharray: none; stroke-linecap: butt; stroke-dashoffset: 0; stroke-linejoin: miter; stroke-miterlimit: 4; fill: rgb(77,36,88); fill-rule: nonzero; opacity: 1;" vector-effect="non-scaling-stroke"  transform=" translate(-159.6, -103.8)" d="M 159.6 103.8" stroke-linecap="round" />
</g>
<g transform="matrix(1 0 0 1 528.99 546.86)"  >
<polygon style="stroke: none; stroke-width: 1; stroke-dasharray: none; stroke-linecap: butt; stroke-dashoffset: 0; stroke-linejoin: miter; stroke-miterlimit: 4; fill: rgb(255,255,255); fill-rule: nonzero; opacity: 1;" vector-effect="non-scaling-stroke"  points="4,4.95 0.5,3.35 -2.7,5.55 -2.4,1.65 -5.4,-0.85 -1.7,-1.85 -0.4,-5.55 1.6,-2.15 5.4,-1.95 3,1.05 " />
</g>
</svg>